<svg
              className="navigation-heading__icon navigation-heading__icon-large"
              xmlns="http://www.w3.org/2000/svg"
              x="0px"
              y="0px"
              viewBox="0 0 219 72"
            >
              <polygon
                fill="#FFFFFF"
                points="18.4,45.9 18.4,55.5 7.4,55.5 7.4,45.9 0,45.9 0,71.6 7.4,71.6 7.4,61.9 18.4,61.9 18.4,71.6 
	25.8,71.6 25.8,45.9 "
              />
              <polygon
                fill="#FFFFFF"
                points="66.9,45.8 66.9,71.5 88.8,71.5 88.8,65 74.3,65 74.3,45.8 "
              />
              <polygon
                fill="#FFFFFF"
                points="96.4,45.8 96.4,71.5 118.3,71.5 118.3,65 103.8,65 103.8,45.8 "
              />
              <polygon
                fill="#FFFFFF"
                points="134.9,45.8 123.9,71.5 131.5,71.5 138.6,54.1 145.8,71.5 153.8,71.5 142.9,45.8 "
              />
              <polygon
                fill="#FFFFFF"
                points="178.1,45.8 178.1,59.5 167.5,45.8 159.3,45.8 159.3,71.5 166.5,71.5 166.5,55.7 178.9,71.5 
	185.1,71.5 185.1,45.8 "
              />
              <g>
                <defs>
                  <path
                    id="SVGID_1_"
                    d="M200.3,52h3.3c4.1,0,7,2.2,7,6.6c0,4.2-2.9,6.6-7,6.6h-3.3V52z M192.8,45.8v25.7h10.9
			c8.2,0,14.4-4.3,14.4-12.9c0-8.8-6.2-12.9-14.4-12.9H192.8z"
                  />
                </defs>
                <clipPath id="SVGID_2_">
                  <use xlinkHref="#SVGID_1_" overflow="visible" />
                </clipPath>
                <rect
                  x="187.8"
                  y="40.8"
                  clip-path="url(#SVGID_2_)"
                  fill="#FFFFFF"
                  width="35.2"
                  height="35.7"
                />
              </g>
              <g>
                <defs>
                  <path
                    id="SVGID_3_"
                    d="M132.6,13.3c0-3.8,2.4-6.7,6.3-6.7c3.9,0,6.3,2.9,6.3,6.7c0,3.8-2.4,6.7-6.3,6.7
			C135,20,132.6,17.1,132.6,13.3 M125.1,13.3c0,8,6,13.3,13.8,13.3c7.7,0,13.8-5.3,13.8-13.3c0-8.1-6.1-13.3-13.8-13.3
			C131.2,0,125.1,5.2,125.1,13.3"
                  />
                </defs>
                <clipPath id="SVGID_4_">
                  <use xlinkHref="#SVGID_3_" overflow="visible" />
                </clipPath>
                <rect
                  x="120.1"
                  y="-5"
                  clip-path="url(#SVGID_4_)"
                  fill="#FFFFFF"
                  width="37.6"
                  height="36.6"
                />
              </g>
              <g>
                <defs>
                  <path
                    id="SVGID_5_"
                    d="M40.1,58.6c0-3.8,2.4-6.7,6.3-6.7c3.9,0,6.3,2.9,6.3,6.7c0,3.8-2.4,6.7-6.3,6.7S40.1,62.4,40.1,58.6
			 M32.6,58.6c0,8,6,13.3,13.8,13.3c7.7,0,13.8-5.3,13.8-13.3c0-8.1-6.1-13.3-13.8-13.3S32.6,50.5,32.6,58.6"
                  />
                </defs>
                <clipPath id="SVGID_6_">
                  <use xlinkHref="#SVGID_5_" overflow="visible" />
                </clipPath>
                <rect
                  x="27.6"
                  y="40.4"
                  clip-path="url(#SVGID_6_)"
                  fill="#FFFFFF"
                  width="37.6"
                  height="36.6"
                />
              </g>
              <polygon
                fill="#FFFFFF"
                points="177.8,0.6 177.8,10.2 166.8,10.2 166.8,0.6 159.4,0.6 159.4,26.3 166.8,26.3 166.8,16.7 177.8,16.7 
	177.8,26.3 185.2,26.3 185.2,0.6 "
              />
              <polygon
                fill="#FFFFFF"
                points="211.6,0.6 211.6,14.3 201.1,0.6 192.8,0.6 192.8,26.3 200.1,26.3 200.1,10.5 212.5,26.3 218.7,26.3 
	218.7,0.6 "
              />
              <g>
                <defs>
                  <path
                    id="SVGID_7_"
                    d="M110.9,0.6v15.8c0,2-0.9,3.6-3,3.6h-1.3c-2.2,0-3.1-1.7-3.1-3.6v-2.9h-7v3.7c0,5.5,3.1,9.4,10.1,9.4h1.3
			c6.9,0,10.5-3.9,10.5-9.4V0.6H110.9z"
                  />
                </defs>
                <clipPath id="SVGID_8_">
                  <use xlinkHref="#SVGID_7_" overflow="visible" />
                </clipPath>
                <rect
                  x="91.4"
                  y="-4.4"
                  clip-path="url(#SVGID_8_)"
                  fill="#FFFFFF"
                  width="31.9"
                  height="36"
                />
              </g>
              <rect
                x="119.2"
                y="32.5"
                fill="#FFFFFF"
                width="39.3"
                height="6.5"
              />
            </svg>