<svg xmlns="http://www.w3.org/2000/svg" xmlns:xlink="http://www.w3.org/1999/xlink" version="1.1" x="0px" y="0px" viewBox="0 0 100 125" enable-background="new 0 0 100 100" xml:space="preserve"><g><path d="M27.899,38.075c-0.304,0-0.602-0.026-0.895-0.063c0.01,0.765,0.087,1.589,0.239,2.441c0.573,3.273,2.051,5.805,3.411,5.992   c1.733,4.66,4.476,9.182,7.865,12.497c1.92,1.876,4.045,3.357,6.313,4.257c1.556,0.62,3.183,0.961,4.854,0.961   c1.671,0,3.295-0.34,4.857-0.961c2.345-0.932,4.545-2.483,6.515-4.457c3.308-3.299,5.976-7.754,7.679-12.333   c1.306-0.383,2.676-2.83,3.235-5.956c0.147-0.831,0.225-1.635,0.237-2.383c-0.037,0.001-0.072,0.006-0.11,0.006h-3.527   c0.118,0.8,0.102,1.787-0.088,2.843c-0.311,1.728-0.984,3.15-1.7,3.764c-0.143,0.12-0.291,0.21-0.434,0.262   c-0.023,0.007-0.044,0.007-0.068,0.013l-0.189,0.021c-0.017,0-0.036,0-0.054,0c-0.043,0-0.08,0.017-0.121,0.011   c-0.155-0.024-0.302-0.104-0.43-0.229c0,0,0,0,0,0.005c-1.569,4.886-4.561,9.755-8.342,12.712   c-1.105,0.865-2.281,1.561-3.507,2.055c-0.021,0.01-0.044,0.016-0.065,0.023l-1.396,0.426c-0.038,0.01-0.075,0.021-0.113,0.03   c-0.139,0.032-0.268,0.093-0.41,0.118c-0.043,0.009-0.088,0.011-0.133,0.017l-0.543,0.055c-0.045,0.004-0.089,0.006-0.133,0.012   c-0.387,0.045-0.774,0.115-1.168,0.115c-2.62,0-5.097-1.04-7.314-2.733c-3.849-2.947-6.898-7.875-8.49-12.827h-0.001   c-0.132,0.12-0.273,0.197-0.425,0.228h-0.003c-0.324,0.053-0.672-0.108-0.998-0.436c-0.671-0.668-1.28-2.018-1.568-3.635   c-0.019-0.106-0.028-0.214-0.045-0.318c0.015-0.865,0.06-1.697,0.107-2.531H27.899z"/><path d="M22.66,84.3V65.211c-1.899,0.466-4.987,1.6-8.005,5.195c-2.093,2.493-4.151,6.157-5.747,11.651   c-0.436,1.504-0.441,3.084-0.085,4.565c0.17,0.688,0.383,1.354,0.709,1.972c1.27,2.401,4.331,4.251,8.443,5.657v-2.791   C17.975,88.322,19.871,85.524,22.66,84.3z"/><path d="M91.089,82.062c-1.696-5.845-3.913-9.63-6.149-12.123c-2.885-3.233-5.781-4.283-7.6-4.726V84.3   c2.789,1.225,4.686,4.022,4.686,7.161v2.793c4.109-1.405,7.169-3.256,8.438-5.659c0.301-0.568,0.506-1.165,0.673-1.782   C91.534,85.283,91.544,83.628,91.089,82.062z"/><path d="M67.963,83.646V64.085c-1.014-0.086-1.93-0.204-2.646-0.426c-0.281,2.335-7.063,10.002-11.505,14.819l-1.927-7.432   c1.447-0.854,1.764-2.737,1.764-4.304h-7.305c0,1.553,0.315,3.419,1.732,4.283l-1.895,7.446   c-4.445-4.812-11.228-12.481-11.505-14.813c-0.715,0.222-1.63,0.341-2.642,0.427v19.561H67.963z"/><path d="M27.899,34.195H72.1c1.723,0,3.119-1.396,3.119-3.118S73.822,27.96,72.1,27.96h-0.848c0-8.284-4.744-15.455-11.656-18.961   l-1.763,9.985c-0.138,0.791-0.826,1.347-1.604,1.347c-0.094,0-0.188-0.008-0.284-0.024c-0.887-0.159-1.478-1.002-1.319-1.889   l2.009-11.406C55.882,5.805,54.545,5,53.014,5h-6.031c-1.528,0-2.865,0.805-3.619,2.012l2.01,11.406   c0.157,0.887-0.434,1.73-1.321,1.889c-0.096,0.017-0.19,0.024-0.284,0.024c-0.776,0-1.466-0.556-1.604-1.347l-1.761-9.983   C33.49,12.506,28.749,19.676,28.749,27.96h-0.85c-1.722,0-3.117,1.394-3.117,3.116S26.177,34.195,27.899,34.195z"/><circle cx="26.721" cy="91.12" r="3.88"/><circle cx="72.632" cy="91.12" r="3.88"/></g></svg>