<svg xmlns="http://www.w3.org/2000/svg" xmlns:xlink="http://www.w3.org/1999/xlink" version="1.1" x="0px" y="0px" viewBox="0 0 100 125" enable-background="new 0 0 100 100" xml:space="preserve"><g><path fill="#000000" d="M30.765,33.786c-0.265,0-0.523-0.023-0.779-0.055c0.009,0.666,0.076,1.383,0.209,2.124   c0.499,2.85,1.785,5.052,2.968,5.215c1.509,4.057,3.896,7.992,6.845,10.878c1.671,1.632,3.521,2.922,5.495,3.705   c1.354,0.539,2.77,0.836,4.225,0.836s2.868-0.296,4.227-0.836c2.041-0.812,3.955-2.162,5.67-3.88   c2.879-2.871,5.202-6.749,6.685-10.734c1.136-0.333,2.328-2.463,2.814-5.184c0.128-0.723,0.196-1.423,0.208-2.074   c-0.033,0.001-0.064,0.005-0.098,0.005h-3.07c0.104,0.696,0.089,1.556-0.076,2.475c-0.27,1.504-0.856,2.742-1.479,3.276   c-0.125,0.104-0.254,0.184-0.378,0.228c-0.021,0.007-0.039,0.007-0.059,0.012l-0.165,0.019c-0.015,0-0.031,0-0.048,0   c-0.036,0-0.069,0.015-0.105,0.01c-0.136-0.021-0.263-0.091-0.375-0.2c0,0,0,0,0,0.005c-1.364,4.253-3.968,8.49-7.259,11.064   c-0.962,0.753-1.985,1.358-3.051,1.789c-0.02,0.008-0.039,0.013-0.058,0.02l-1.215,0.371c-0.033,0.008-0.066,0.018-0.1,0.026   c-0.12,0.027-0.232,0.08-0.355,0.102c-0.038,0.009-0.078,0.01-0.117,0.016l-0.472,0.048c-0.04,0.003-0.077,0.005-0.115,0.01   c-0.338,0.039-0.674,0.101-1.017,0.101c-2.28,0-4.436-0.905-6.366-2.38c-3.35-2.565-6.003-6.854-7.389-11.164h-0.001   c-0.115,0.104-0.237,0.172-0.37,0.198h-0.002c-0.282,0.046-0.584-0.094-0.868-0.38c-0.584-0.582-1.114-1.756-1.365-3.164   c-0.017-0.092-0.024-0.186-0.039-0.276c0.012-0.753,0.052-1.478,0.093-2.203H30.765z"/><path fill="#000000" d="M85.761,72.07c-1.476-5.087-3.404-8.381-5.352-10.551c-3.43-3.844-6.884-4.147-7.928-4.391   c-3.204-0.749-7.08-0.433-9.15-1.075c-0.244,2.033-6.147,8.705-10.012,12.898l-1.677-6.469c1.26-0.743,1.535-2.382,1.535-3.746   h-6.359c0,1.353,0.275,2.977,1.508,3.729l-1.648,6.481c-3.869-4.188-9.772-10.864-10.013-12.894   c-2.073,0.645-5.948,0.328-9.153,1.073c-1.072,0.252-4.732,0.577-8.274,4.8c-1.822,2.17-3.613,5.358-5.001,10.14   c-0.379,1.31-0.384,2.685-0.074,3.974c0.147,0.599,0.333,1.179,0.617,1.717c0.792,1.499,2.392,2.749,4.548,3.79l0.739-1.455   c2.26-4.459,6.763-7.229,11.751-7.229c4.056,0,7.792,1.832,10.262,4.916h15.841c2.47-3.084,6.206-4.916,10.262-4.916   c4.988,0,9.489,2.77,11.751,7.228l0.739,1.456c2.155-1.04,3.753-2.291,4.544-3.79c0.262-0.495,0.44-1.014,0.585-1.552   C86.148,74.875,86.156,73.434,85.761,72.07z"/><path fill="#000000" d="M30.765,30.409h38.469c1.5,0,2.716-1.215,2.716-2.714c0-1.498-1.216-2.712-2.716-2.712h-0.737   c0-7.21-4.128-13.451-10.145-16.503l-1.534,8.69c-0.12,0.688-0.72,1.173-1.396,1.173c-0.08,0-0.163-0.007-0.247-0.021   c-0.771-0.139-1.286-0.872-1.147-1.644l1.748-9.928C55.119,5.7,53.955,5,52.623,5h-5.249c-1.33,0-2.493,0.7-3.149,1.751l1.75,9.928   c0.137,0.771-0.377,1.505-1.149,1.644c-0.083,0.015-0.166,0.021-0.247,0.021c-0.676,0-1.276-0.484-1.396-1.173l-1.533-8.688   c-6.018,3.05-10.145,9.291-10.145,16.501h-0.739c-1.499,0-2.713,1.214-2.713,2.712C28.052,29.194,29.266,30.409,30.765,30.409z"/><path fill="#000000" d="M69.083,82h7.087c-1.479-2.914-4.495-4.916-7.987-4.916c-3.49,0-6.508,2.002-7.986,4.916H39.803   c-1.478-2.914-4.495-4.916-7.986-4.916c-3.492,0-6.509,2.002-7.987,4.916h7.086l0.9,1.559l1.433,2.483l-1.433,2.483l-0.9,1.559   h-7.086C25.308,92.998,28.325,95,31.817,95c3.491,0,6.508-2.002,7.986-4.916h20.393C61.675,92.998,64.692,95,68.183,95   c3.492,0,6.508-2.002,7.987-4.916h-7.087l-0.9-1.559l-1.433-2.483l1.433-2.483L69.083,82z"/></g><text x="0" y="115" fill="#000000" font-size="5px" font-weight="bold" font-family="'Helvetica Neue', Helvetica, Arial-Unicode, Arial, Sans-serif">Created by Wilson Joseph</text><text x="0" y="120" fill="#000000" font-size="5px" font-weight="bold" font-family="'Helvetica Neue', Helvetica, Arial-Unicode, Arial, Sans-serif">from the Noun Project</text></svg>